# xmcd
#
# Track frame offsets:
#	150
#	17480
#	35368
#	50500
#	65886
#	78600
#	95633
#	112783
#	131386
#	148130
#	165718
#	181385
#
# Disc length: 2633 seconds
#
# Revision: 0
# Processed by: cddbd v1.5.1PL2 Copyright (c) Steve Scherf et al.
# Submitted via: dBpowerAMP V4.0
#
DISCID=a20a470c
DTITLE=Carla Herrod - Ten Years in 5
DYEAR=2004
DGENRE=Country
TTITLE0=Out All Night
TTITLE1=Little Piece of Heaven
TTITLE2=Anywhere
TTITLE3=Smile
TTITLE4=Boy For the Weekend
TTITLE5=Bob`s Birthday
TTITLE6=Good Now You`re Gone
TTITLE7=The 10:05
TTITLE8=Life of Mine
TTITLE9=Not Supposed to Know
TTITLE10=Should`ve Known Better
TTITLE11=Driving
EXTD=
EXTT0=
EXTT1=
EXTT2=
EXTT3=
EXTT4=
EXTT5=
EXTT6=
EXTT7=
EXTT8=
EXTT9=
EXTT10=
EXTT11=
PLAYORDER=
